<svg width="18" height="17" viewBox="0 0 18 17" fill="none" xmlns="http://www.w3.org/2000/svg">
<g id="search_FILL0_wght400_GRAD0_opsz48 1">
<path id="Vector" d="M7.19375 11.174C5.91684 11.174 4.83615 10.7313 3.95169 9.84584C3.06723 8.96043 2.625 7.89202 2.625 6.64063C2.625 5.38924 3.06771 4.32084 3.95313 3.43542C4.83854 2.55001 5.9099 2.1073 7.16719 2.1073C8.42448 2.1073 9.49288 2.55001 10.3724 3.43542C11.2519 4.32084 11.6917 5.39013 11.6917 6.64329C11.6917 7.14916 11.609 7.6382 11.4438 8.11043C11.2785 8.58265 11.0306 9.02536 10.7 9.43855L14.9854 13.6886C15.0917 13.7896 15.1448 13.9181 15.1448 14.0742C15.1448 14.2303 15.0917 14.3615 14.9854 14.4677C14.8792 14.574 14.748 14.6271 14.5919 14.6271C14.4358 14.6271 14.3073 14.574 14.2063 14.4677L9.93854 10.2C9.58438 10.507 9.17142 10.746 8.69968 10.9172C8.22795 11.0884 7.72597 11.174 7.19375 11.174ZM7.17604 10.1115C8.13524 10.1115 8.95056 9.77206 9.62201 9.09324C10.2934 8.41442 10.6292 7.59688 10.6292 6.64063C10.6292 5.68438 10.2934 4.86685 9.62201 4.18803C8.95056 3.50921 8.13524 3.1698 7.17604 3.1698C6.20701 3.1698 5.38332 3.50921 4.70499 4.18803C4.02666 4.86685 3.6875 5.68438 3.6875 6.64063C3.6875 7.59688 4.02666 8.41442 4.70499 9.09324C5.38332 9.77206 6.20701 10.1115 7.17604 10.1115Z" fill="white"/>
</g>
</svg>
